<?xml version="1.0" encoding="utf-8"?>
<svg width="134.70972px" height="116px" viewBox="0 0 134.70972 116" version="1.1" xmlns:xlink="http://www.w3.org/1999/xlink" xmlns="http://www.w3.org/2000/svg">
  <g id="Group-40-Copier-3" opacity="0.2">
    <path d="M37.4194 0C58.0883 0 74.8387 16.7504 74.8387 37.4194L74.8387 74.8387L37.4194 74.8387C16.7504 74.8387 0 58.0883 0 37.4194L0 37.4194C0 16.7504 16.7504 0 37.4194 0Z" id="Rectangle-23" fill="#A7FED9" stroke="none" />
    <path d="M109.763 24.9462C95.9842 24.9462 84.8172 36.1132 84.8172 49.8925L84.8172 74.8387L109.763 74.8387C123.543 74.8387 134.71 63.6718 134.71 49.8925L134.71 49.8925C134.71 36.1132 123.543 24.9462 109.763 24.9462Z" id="Rectangle-24" fill="#EBB2FF" stroke="none" />
    <path d="M60.4947 116C68.4178 116 74.8388 109.579 74.8388 101.656L74.8388 87.3118L60.4947 87.3118C52.5716 87.3118 46.1506 93.7328 46.1506 101.656L46.1506 101.656C46.1506 109.579 52.5716 116 60.4947 116Z" id="Rectangle-25" fill="#FFFFFF" stroke="none" />
  </g>
</svg>