<?xml version="1.0" encoding="utf-8"?>
<svg width="320px" height="320px" viewBox="0 0 320 320" version="1.1" xmlns:xlink="http://www.w3.org/1999/xlink" xmlns="http://www.w3.org/2000/svg">
  <defs>
    <path d="M812 345L812 345L812 665L492 665L492 345L812 345Z" id="path_1" />
    <clipPath id="clip_1">
      <use xlink:href="#path_1" clip-rule="evenodd" fill-rule="evenodd" />
    </clipPath>
  </defs>
  <g id="Frame" clip-path="url(#clip_1)">
    <path d="M812 345L812 345L812 665L492 665L492 345L812 345Z" id="Frame" fill="none" stroke="none" />
    <path d="M91.4032 40.5531C52.3075 63.125 38.9125 113.116 61.4844 152.212L117.304 248.894C139.876 287.99 189.867 301.385 228.963 278.813C268.059 256.241 281.454 206.25 258.882 167.154L203.062 70.4721C180.49 31.3764 130.499 17.9811 91.4032 40.5531L91.4032 40.5531ZM62.3504 151.712C40.0546 113.095 53.2859 63.7149 91.9032 41.4191C130.52 19.1236 179.9 32.3547 202.196 70.9721L258.016 167.654C280.311 206.271 267.08 255.652 228.463 277.947C189.845 300.243 140.465 287.011 118.17 248.394L62.3504 151.712L62.3504 151.712Z" id="Vector" fill="#EBB2FF" fill-rule="evenodd" stroke="none" />
    <path d="M81.2955 46.9408C44.3158 72.8342 35.3288 123.803 61.2222 160.782L125.256 252.232C151.149 289.211 202.118 298.198 239.097 272.305C276.077 246.411 285.064 195.443 259.171 158.463L195.137 67.0142C169.244 30.0346 118.275 21.0472 81.2955 46.9408L81.2955 46.9408ZM62.0413 160.209C36.4647 123.682 45.3418 73.3366 81.869 47.7599C118.396 22.1836 168.741 31.0606 194.318 67.5878L258.351 159.037C283.928 195.564 275.05 245.91 238.524 271.486C201.996 297.063 151.651 288.185 126.075 251.658L62.0413 160.209L62.0413 160.209Z" id="Vector" fill="#EBB2FF" fill-rule="evenodd" stroke="none" />
    <path d="M71.7829 54.1845C37.2007 83.2024 32.69 134.76 61.7079 169.343L133.468 254.863C162.486 289.445 214.044 293.956 248.626 264.938C283.208 235.92 287.719 184.362 258.701 149.78L186.941 64.2596C157.923 29.6775 106.365 25.1665 71.7829 54.1845L71.7829 54.1845ZM62.474 168.7C33.8111 134.541 38.2666 83.6134 72.4256 54.9506C106.584 26.288 157.512 30.7433 186.175 64.9024L257.935 150.423C286.597 184.581 282.142 235.509 247.983 264.172C213.824 292.835 162.897 288.379 134.234 254.22L62.474 168.7L62.474 168.7Z" id="Vector" fill="#EBB2FF" fill-rule="evenodd" stroke="none" />
    <path d="M62.938 62.2311C31.0165 94.1526 31.0165 145.907 62.938 177.829L141.879 256.77C173.8 288.691 225.555 288.691 257.476 256.77C289.398 224.848 289.398 173.093 257.476 141.172L178.536 62.2312C146.614 30.3097 94.8596 30.3095 62.938 62.2311L62.938 62.2311ZM63.6451 177.122C32.1142 145.591 32.1141 94.4692 63.6451 62.9382C95.1757 31.4076 146.298 31.4073 177.829 62.9383L256.769 141.879C288.3 173.41 288.3 224.532 256.769 256.063C225.238 287.593 174.116 287.593 142.586 256.063L63.6451 177.122L63.6451 177.122Z" id="Vector" fill="#EBB2FF" fill-rule="evenodd" stroke="none" />
    <path d="M54.8278 71.0165C25.8099 105.599 30.3207 157.157 64.9029 186.175L150.423 257.935C185.006 286.953 236.563 282.442 265.581 247.86C294.599 213.277 290.088 161.72 255.506 132.702L169.986 60.9416C135.404 31.9237 83.8458 36.4342 54.8278 71.0165L54.8278 71.0165ZM65.5457 185.408C31.3866 156.746 26.931 105.818 55.5938 71.6593C84.2564 37.5006 135.184 33.0448 169.343 61.7076L254.863 133.468C289.022 162.13 293.478 213.058 264.815 247.217C236.152 281.376 185.225 285.831 151.066 257.169L65.5457 185.408L65.5457 185.408Z" id="Vector" fill="#EBB2FF" fill-rule="evenodd" stroke="none" />
    <path d="M47.5142 80.4765C21.6207 117.456 30.608 168.425 67.5876 194.318L159.037 258.352C196.017 284.245 246.985 275.258 272.878 238.278C298.772 201.298 289.785 150.33 252.805 124.437L161.356 60.4032C124.376 34.5098 73.4077 43.4967 47.5142 80.4765L47.5142 80.4765ZM68.1612 193.499C31.634 167.922 22.7567 117.577 48.3333 81.0501C73.9097 44.5233 124.255 35.6457 160.782 61.2224L252.232 125.256C288.758 150.832 297.636 201.178 272.059 237.705C246.483 274.232 196.137 283.109 159.61 257.532L68.1612 193.499L68.1612 193.499Z" id="Vector" fill="#EBB2FF" fill-rule="evenodd" stroke="none" />
    <path d="M41.053 90.5371C18.4811 129.633 31.8763 179.624 70.972 202.196L167.654 258.016C206.75 280.587 256.741 267.192 279.313 228.097C301.885 189.001 288.49 139.01 249.394 116.438L152.712 60.6182C113.616 38.0463 63.625 51.4412 41.053 90.5371L41.053 90.5371ZM71.472 201.33C32.8546 179.034 19.6233 129.654 41.919 91.0371C64.2145 52.4201 113.595 39.1885 152.212 61.4842L248.894 117.304C287.511 139.599 300.743 188.98 278.447 227.597C256.151 266.214 206.771 279.445 168.154 257.149L71.472 201.33L71.472 201.33Z" id="Vector" fill="#EBB2FF" fill-rule="evenodd" stroke="none" />
    <path d="M241.042 104.521C241.042 59.4982 204.544 23 159.521 23C114.498 23 78 59.4982 78 104.521L78 216.077C78 261.1 114.498 297.598 159.521 297.598C204.544 297.598 241.042 261.1 241.042 216.077L241.042 104.521L241.042 104.521Z" id="Vector" fill="#1D1D21" fill-rule="evenodd" stroke="none" />
    <path d="M121.62 170.3C127.62 170.3 131.25 166.22 131.25 159.95C131.25 153.68 127.62 149.6 121.62 149.6C115.62 149.6 111.96 153.68 111.96 159.95C111.96 166.22 115.62 170.3 121.62 170.3L121.62 170.3ZM136.467 170L138.117 165.53L146.637 165.53L148.257 170L153.147 170L145.737 149.9L139.197 149.9L131.787 170L136.467 170L136.467 170ZM169.564 170L169.564 165.95L159.184 165.95L159.184 149.9L154.684 149.9L154.684 170L169.564 170L169.564 170ZM186.903 170L186.903 165.95L176.073 165.95L176.073 161.9L186.453 161.9L186.453 157.88L176.073 157.88L176.073 153.95L186.903 153.95L186.903 149.9L171.573 149.9L171.573 170L186.903 170L186.903 170ZM199.674 170L199.674 153.95L206.154 153.95L206.154 149.9L188.694 149.9L188.694 153.95L195.174 153.95L195.174 170L199.674 170L199.674 170ZM140.727 158.39L142.257 153.86L142.557 153.86L144.027 158.39L145.167 161.51L139.587 161.51L140.727 158.39L140.727 158.39ZM121.62 165.95C118.17 165.95 116.76 164.66 116.76 159.95C116.76 155.24 118.17 153.95 121.62 153.95C125.07 153.95 126.45 155.24 126.45 159.95C126.45 164.66 125.07 165.95 121.62 165.95L121.62 165.95Z" id="Vector" fill="#FFFFFF" fill-rule="evenodd" stroke="none" />
    <path d="M101.123 283.507C142.038 302.586 190.671 284.884 209.75 243.97L256.93 142.791C276.009 101.877 258.308 53.2433 217.394 34.1647C176.479 15.086 127.846 32.7871 108.767 73.7015L61.5866 174.881C42.508 215.795 60.209 264.428 101.123 283.507L101.123 283.507ZM208.844 243.548C189.998 283.961 141.96 301.446 101.546 282.601C61.1328 263.756 43.6478 215.717 62.493 175.303L109.674 74.1241C128.519 33.7109 176.558 16.226 216.971 35.071C257.385 53.9162 274.869 101.955 256.024 142.368L208.844 243.548L208.844 243.548Z" id="Vector" fill="#A7FED9" fill-rule="evenodd" stroke="none" />
    <path d="M112.153 288.122C154.574 303.562 201.48 281.69 216.92 239.268L255.103 134.362C270.543 91.9407 248.67 45.0351 206.249 29.595C163.827 14.1548 116.922 36.0273 101.482 78.4488L63.2988 183.355C47.8587 225.776 69.731 272.682 112.153 288.122L112.153 288.122ZM215.98 238.926C200.729 280.829 154.397 302.434 112.495 287.183C70.5927 271.932 48.9873 225.599 64.2385 183.697L102.421 78.7908C117.672 36.8889 164.005 15.2837 205.907 30.5347C247.809 45.7859 269.414 92.1183 254.163 134.02L215.98 238.926L215.98 238.926Z" id="Vector" fill="#A7FED9" fill-rule="evenodd" stroke="none" />
    <path d="M123.543 291.76C167.149 303.444 211.97 277.567 223.654 233.961L252.548 126.126C264.232 82.5205 238.355 37.6997 194.749 26.0156C151.143 14.3315 106.323 40.2088 94.6386 83.8145L65.7443 191.649C54.0603 235.255 79.9375 280.076 123.543 291.76L123.543 291.76ZM222.688 233.702C211.147 276.774 166.874 302.335 123.802 290.794C80.7305 279.253 55.1691 234.98 66.7103 191.908L95.6045 84.0733C107.146 41.0017 151.419 15.4406 194.49 26.9815C237.563 38.5226 263.123 82.7958 251.582 125.867L222.688 233.702L222.688 233.702Z" id="Vector" fill="#A7FED9" fill-rule="evenodd" stroke="none" />
    <path d="M135.208 294.39C179.666 302.229 222.061 272.544 229.9 228.086L249.286 118.143C257.125 73.6847 227.44 31.2898 182.982 23.4507C138.524 15.6115 96.1287 45.2967 88.2895 89.7548L68.9036 199.698C61.0645 244.156 90.7496 286.551 135.208 294.39L135.208 294.39ZM228.915 227.912C221.172 271.826 179.296 301.148 135.381 293.405C91.4679 285.662 62.1452 243.785 69.8885 199.871L89.2744 89.9285C97.0175 46.0149 138.895 16.6923 182.808 24.4355C226.722 32.1787 256.044 74.0556 248.301 117.969L228.915 227.912L228.915 227.912Z" id="Vector" fill="#A7FED9" fill-rule="evenodd" stroke="none" />
    <path d="M147.056 295.994C192.028 299.928 231.675 266.661 235.609 221.689L245.339 110.475C249.274 65.5026 216.006 25.8563 171.034 21.9218C126.062 17.9872 86.4157 51.2544 82.4812 96.2266L72.7512 207.441C68.8167 252.413 102.084 292.059 147.056 295.994L147.056 295.994ZM234.613 221.602C230.727 266.024 191.565 298.884 147.143 294.998C102.722 291.111 69.861 251.95 73.7474 207.528L83.4774 96.3138C87.3637 51.8925 126.526 19.0316 170.947 22.918C215.369 26.8044 248.229 65.9664 244.343 110.388L234.613 221.602L234.613 221.602Z" id="Vector" fill="#A7FED9" fill-rule="evenodd" stroke="none" />
    <path d="M159 296.559C204.144 296.559 240.74 259.963 240.74 214.819L240.74 103.18C240.74 58.036 204.144 21.44 159 21.44C113.856 21.44 77.26 58.036 77.26 103.18L77.26 214.819C77.26 259.963 113.856 296.559 159 296.559L159 296.559ZM239.74 214.819C239.74 259.41 203.591 295.559 159 295.559C114.409 295.559 78.26 259.41 78.26 214.819L78.26 103.18C78.26 58.589 114.409 22.44 159 22.44C203.591 22.44 239.74 58.589 239.74 103.18L239.74 214.819L239.74 214.819Z" id="Vector" fill="#A7FED9" fill-rule="evenodd" stroke="none" />
  </g>
</svg>