<?xml version="1.0" encoding="utf-8"?>
<svg width="35px" height="28px" viewBox="0 0 35 28" version="1.1" xmlns:xlink="http://www.w3.org/1999/xlink" xmlns="http://www.w3.org/2000/svg">
  <defs>
    <linearGradient gradientUnits="objectBoundingBox" x1="0.49999857" y1="0" x2="0.49999857" y2="1" id="gradient_1">
      <stop offset="0%" stop-color="#BDBDBD" />
      <stop offset="52.6042%" stop-color="#FFFFFF" />
      <stop offset="100%" stop-color="#BDBDBD" />
    </linearGradient>
    <path d="M527 345L527 345L527 373L492 373L492 345L527 345Z" id="path_1" />
    <clipPath id="clip_1">
      <use xlink:href="#path_1" clip-rule="evenodd" fill-rule="evenodd" />
    </clipPath>
  </defs>
  <g id="Frame" clip-path="url(#clip_1)">
    <path d="M527 345L527 345L527 373L492 373L492 345L527 345Z" id="Frame" fill="none" stroke="none" />
    <path d="M34.9329 4.14351L34.9437 23.5016C34.9437 25.7854 33.0795 27.656 30.8142 27.656L4.17287 27.6778C1.88592 27.6778 0.0216772 25.8072 0.0216772 23.5342L0 4.17613C0 1.88143 1.86424 0.0217507 4.14035 0.0217507L30.7925 0C33.0686 0 34.9329 1.84881 34.9329 4.14351L34.9329 4.14351Z" id="Vector" fill="url(#gradient_1)" fill-rule="evenodd" stroke="none" />
    <path d="M13.4723 23.9801C13.3206 23.9801 13.1797 23.904 13.1147 23.7626C13.0171 23.5669 13.093 23.3167 13.2881 23.2189C13.8734 22.9144 14.6646 22.3488 15.1306 21.3809C15.7159 20.1411 15.5642 18.7926 15.3149 18.673C15.2576 18.6442 15.0654 18.7422 14.9167 18.818C14.8968 18.8282 14.8776 18.838 14.8597 18.847C14.4803 19.0427 13.9492 19.3146 13.3423 19.0971C12.7462 18.8905 12.4535 18.3576 12.3126 18.0966C11.3913 16.4109 11.1095 12.039 12.0742 9.86395C12.3993 9.14616 12.8329 8.71115 13.3748 8.58066C13.9276 8.45015 14.3828 8.67852 14.7405 8.87428C15.0331 9.02654 15.1848 9.09179 15.2824 9.03741C15.6617 8.80903 15.6509 7.41698 15.1198 6.31857C14.6537 5.33979 13.8625 4.77428 13.2772 4.48064C13.0821 4.38276 12.9954 4.13263 13.1038 3.93687C13.2014 3.74112 13.4507 3.65412 13.6458 3.76287C14.3394 4.12176 15.2932 4.79603 15.846 5.98144C16.3988 7.1451 16.6589 9.15705 15.6943 9.74432C15.2114 10.035 14.7498 9.80339 14.3829 9.61933L14.3719 9.6138C14.3644 9.61005 14.357 9.60631 14.3495 9.60257C14.0758 9.46508 13.8123 9.33278 13.559 9.39631C13.2014 9.4833 12.9629 9.88569 12.8112 10.2119C11.9658 12.1151 12.2151 16.2478 13.0171 17.7268C13.158 17.9769 13.3206 18.2488 13.6024 18.3467C13.8734 18.4446 14.1335 18.325 14.4912 18.1401C14.8488 17.9552 15.239 17.7594 15.6617 17.9552C16.5722 18.4011 16.5071 20.3478 15.8568 21.7398C15.2932 22.9252 14.3503 23.5995 13.6566 23.9584C13.5916 23.9693 13.5265 23.9801 13.4723 23.9801L13.4723 23.9801Z" id="Vector" fill="#666666" fill-rule="evenodd" stroke="none" />
    <path d="M12.2476 10.7878L4.97488 10.7878C4.74727 10.7878 4.57385 10.5581 4.57385 10.2878C4.57385 10.0175 4.74727 9.78781 4.96404 9.78781L12.2368 9.78781C12.4644 9.78781 12.6378 10.0175 12.6378 10.2878C12.6486 10.5581 12.4752 10.7878 12.2476 10.7878L12.2476 10.7878Z" id="Vector" fill="#666666" fill-rule="evenodd" stroke="none" />
    <path d="M12.2476 18.096L4.97488 18.096C4.74727 18.096 4.57385 17.8663 4.57385 17.596C4.57385 17.3123 4.75811 17.096 4.97488 17.096L12.2476 17.096C12.4752 17.096 12.6486 17.3257 12.6486 17.596C12.6595 17.8663 12.4752 18.096 12.2476 18.096L12.2476 18.096Z" id="Vector" fill="#666666" fill-rule="evenodd" stroke="none" />
    <path d="M21.959 23.9693C21.894 23.9693 21.8289 23.9584 21.7747 23.9258C21.0811 23.5669 20.1273 22.8926 19.5745 21.7072C18.9133 20.3151 18.8591 18.3685 19.7588 17.9226C20.1761 17.7185 20.5722 17.9174 20.916 18.0899L20.9293 18.0966C21.2978 18.2815 21.558 18.4011 21.8181 18.3032C22.1216 18.1945 22.295 17.8791 22.4034 17.6833C23.2054 16.2043 23.4439 12.0608 22.5985 10.1684C22.4467 9.84219 22.2083 9.42892 21.8506 9.3528C21.6338 9.29842 21.4929 9.08091 21.5471 8.8634C21.6013 8.6459 21.8181 8.51539 22.0349 8.55889C22.5768 8.6894 23.0103 9.11354 23.3355 9.83131C24.311 12.0064 24.0292 16.3891 23.1079 18.0639C22.967 18.325 22.6743 18.8578 22.0782 19.0645C21.4713 19.282 20.9402 19.0101 20.5608 18.8143C20.4091 18.7382 20.1706 18.6186 20.1056 18.6403C19.8671 18.76 19.7046 20.1085 20.3007 21.3483C20.7667 22.3271 21.558 22.8926 22.1433 23.1862C22.3383 23.2841 22.4251 23.5342 22.3167 23.73C22.2516 23.8931 22.1107 23.9693 21.959 23.9693L21.959 23.9693Z" id="Vector" fill="#666666" fill-rule="evenodd" stroke="none" />
    <path d="M20.3332 8.96128C20.1598 8.96128 20.0081 8.85253 19.9539 8.6894C19.0868 6.07932 21.1136 4.06738 21.7639 3.74112C21.959 3.63236 22.2083 3.71937 22.3059 3.91512C22.4034 4.11088 22.3275 4.36101 22.1324 4.45889C21.8398 4.61114 19.9756 6.20982 20.7126 8.42839C20.7885 8.6459 20.6692 8.87428 20.4525 8.93953C20.4199 8.96128 20.3766 8.96128 20.3332 8.96128L20.3332 8.96128Z" id="Vector" fill="#666666" fill-rule="evenodd" stroke="none" />
    <path d="M30.4456 10.7769L23.1729 10.7769C22.9453 10.7769 22.7719 10.5472 22.7719 10.2769C22.7719 10.0067 22.9561 9.77693 23.1729 9.77693L30.4456 9.77693C30.6732 9.77693 30.8466 10.0067 30.8466 10.2769C30.8466 10.5472 30.6624 10.7769 30.4456 10.7769L30.4456 10.7769Z" id="Vector" fill="#666666" fill-rule="evenodd" stroke="none" />
    <path d="M30.4456 18.0743L23.1729 18.0743C22.9453 18.0743 22.7719 17.8446 22.7719 17.5743C22.7719 17.2905 22.9561 17.0743 23.1729 17.0743L30.4456 17.0743C30.6732 17.0743 30.8466 17.304 30.8466 17.5743C30.8466 17.8581 30.6732 18.0743 30.4456 18.0743L30.4456 18.0743Z" id="Vector" fill="#666666" fill-rule="evenodd" stroke="none" />
  </g>
</svg>