<?xml version="1.0" encoding="utf-8"?>
<svg width="34.943726px" height="27.677795px" viewBox="0 0 34.943726 27.677795" version="1.1" xmlns:xlink="http://www.w3.org/1999/xlink" xmlns="http://www.w3.org/2000/svg">
  <defs>
    <linearGradient gradientUnits="objectBoundingBox" x1="0.5" y1="-3.061617E-17" x2="0.5" y2="1" id="gradient_1">
      <stop offset="0%" stop-color="#BDBDBD" />
      <stop offset="52.604168%" stop-color="#FFFFFF" />
      <stop offset="100%" stop-color="#BDBDBD" />
    </linearGradient>
  </defs>
  <g id="Group">
    <g id="Group">
      <path d="M34.9329 4.14351L34.9437 23.5016C34.9437 25.7854 33.0795 27.656 30.8142 27.656L4.17287 27.6778C1.88592 27.6778 0.0216772 25.8072 0.0216772 23.5342L0 4.17613C0 1.88143 1.86424 0.0217507 4.14035 0.0217507L30.7925 0C33.0686 0 34.9329 1.84881 34.9329 4.14351L34.9329 4.14351Z" id="Vector" fill="url(#gradient_1)" fill-rule="evenodd" stroke="none" />
    </g>
    <g id="Group" transform="translate(4.5738955 3.693741)">
      <g id="Group" transform="translate(6.8990645 0.021749973)">
        <g id="Group">
          <path d="M1.99944 20.2646C1.8477 20.2646 1.7068 20.1885 1.64176 20.0471C1.54422 19.8514 1.62009 19.6012 1.81518 19.5034C2.40047 19.1989 3.19168 18.6333 3.65774 17.6654C4.24303 16.4256 4.09129 15.0771 3.842 14.9575C3.78483 14.9288 3.59365 15.0262 3.44516 15.1019C3.42474 15.1123 3.40513 15.1223 3.38678 15.1315C3.00743 15.3272 2.47634 15.5991 1.86937 15.3816C1.27325 15.175 0.980608 14.6421 0.839706 14.3811C-0.0815756 12.6954 -0.36338 8.32351 0.601257 6.14844C0.926415 5.43067 1.35996 4.99566 1.90189 4.86515C2.45466 4.73465 2.90988 4.96303 3.26755 5.15879C3.5602 5.31104 3.71194 5.3763 3.80949 5.32192C4.18884 5.09354 4.178 3.70149 3.64691 2.60308C3.18085 1.6243 2.38963 1.05878 1.80434 0.765149C1.60925 0.667271 1.52254 0.417138 1.63092 0.221382C1.72847 0.0256255 1.97776 -0.0613771 2.17286 0.0473764C2.86653 0.406263 3.82032 1.08053 4.37309 2.26595C4.92586 3.42961 5.18599 5.44155 4.22135 6.02882C3.73843 6.31955 3.27675 6.08786 2.90998 5.9038L2.89904 5.89831C2.89162 5.89459 2.88421 5.89087 2.87681 5.88715C2.60298 5.74963 2.33942 5.61727 2.08615 5.68081C1.72847 5.76781 1.49002 6.1702 1.33828 6.49646C0.492871 8.39964 0.742158 12.5323 1.54422 14.0113C1.68512 14.2615 1.8477 14.5333 2.1295 14.6312C2.40047 14.7291 2.66059 14.6095 3.01827 14.4246C3.37594 14.2397 3.76613 14.0439 4.18884 14.2397C5.09928 14.6856 5.03425 16.6323 4.38393 18.0243C3.82032 19.2097 2.87737 19.884 2.18369 20.2429C2.11866 20.2538 2.05363 20.2646 1.99944 20.2646L1.99944 20.2646Z" id="Vector" fill="#666666" fill-rule="evenodd" stroke="none" />
        </g>
      </g>
      <g id="Group" transform="translate(-1.1920929E-07 6.0940695)">
        <g id="Group">
          <path d="M7.67374 1L0.401029 1C0.173418 1 0 0.77027 0 0.5C0 0.22973 0.173418 0 0.39019 0L7.6629 0C7.89051 0 8.06393 0.22973 8.06393 0.5C8.07477 0.77027 7.90135 1 7.67374 1L7.67374 1Z" id="Vector" fill="#666666" fill-rule="evenodd" stroke="none" />
        </g>
      </g>
      <g id="Group" transform="translate(-1.1920929E-07 13.402304)">
        <g id="Group">
          <path d="M7.67374 1L0.401029 1C0.173418 1 0 0.770271 0 0.500001C0 0.216217 0.184256 0 0.401029 0L7.67374 0C7.90135 0 8.07477 0.22973 8.07477 0.500001C8.08561 0.770271 7.90135 1 7.67374 1L7.67374 1Z" id="Vector" fill="#666666" fill-rule="evenodd" stroke="none" />
        </g>
      </g>
      <g id="Group" transform="translate(14.506467 4.85682)">
        <g id="Group">
          <path d="M2.87867 15.4187C2.81364 15.4187 2.74861 15.4078 2.69442 15.3752C2.00074 15.0163 1.04695 14.342 0.494176 13.1566C-0.166979 11.7646 -0.221172 9.8179 0.678433 9.37201C1.09579 9.16799 1.49201 9.36685 1.8358 9.53939L1.849 9.54601C2.21752 9.73089 2.47764 9.85052 2.73777 9.75264C3.04125 9.64389 3.21467 9.32851 3.32306 9.13275C4.12511 7.6537 4.36356 3.5102 3.51815 1.61789C3.36641 1.29163 3.12796 0.878363 2.77029 0.802236C2.55351 0.747859 2.41261 0.530351 2.4668 0.312844C2.521 0.0953374 2.73777 -0.0351664 2.95454 0.00833495C3.49647 0.138839 3.93002 0.562978 4.25518 1.28075C5.23065 3.45582 4.94885 7.83858 4.02757 9.51339C3.88666 9.7744 3.59402 10.3073 2.9979 10.5139C2.39093 10.7314 1.85984 10.4595 1.48049 10.2638L1.47953 10.2633C1.32775 10.1872 1.09016 10.068 1.02527 10.0898C0.786819 10.2094 0.62424 11.558 1.22036 12.7977C1.68642 13.7765 2.47764 14.342 3.06293 14.6357C3.25802 14.7336 3.34473 14.9837 3.23635 15.1794C3.17132 15.3426 3.03041 15.4187 2.87867 15.4187L2.87867 15.4187Z" id="Vector" fill="#666666" fill-rule="evenodd" stroke="none" />
        </g>
      </g>
      <g id="Group" transform="translate(15.167684 0)">
        <g id="Group">
          <path d="M0.591661 5.26754C0.418243 5.26754 0.266502 5.15879 0.212309 4.99566C-0.65478 2.38558 1.37204 0.373637 2.02236 0.0473764C2.21745 -0.0613771 2.46674 0.0256255 2.56429 0.221382C2.66184 0.417138 2.58597 0.667271 2.39087 0.765149C2.09823 0.917404 0.233985 2.51608 0.971011 4.73465C1.04688 4.95216 0.927657 5.18054 0.710885 5.24579C0.678369 5.26754 0.635016 5.26754 0.591661 5.26754L0.591661 5.26754Z" id="Vector" fill="#666666" fill-rule="evenodd" stroke="none" />
        </g>
      </g>
      <g id="Group" transform="translate(18.198036 6.083194)">
        <g id="Group">
          <path d="M7.67374 1L0.401028 1C0.173417 1 0 0.770271 0 0.5C0 0.229729 0.184255 0 0.401028 0L7.67374 0C7.90135 0 8.07477 0.229729 8.07477 0.5C8.07477 0.770271 7.89051 1 7.67374 1L7.67374 1Z" id="Vector" fill="#666666" fill-rule="evenodd" stroke="none" />
        </g>
      </g>
      <g id="Group" transform="translate(18.198036 13.38055)">
        <g id="Group">
          <path d="M7.67374 1L0.401028 1C0.173417 1 0 0.77027 0 0.499999C0 0.216216 0.184255 0 0.401028 0L7.67374 0C7.90135 0 8.07477 0.229729 8.07477 0.499999C8.07477 0.783783 7.90135 1 7.67374 1L7.67374 1Z" id="Vector" fill="#666666" fill-rule="evenodd" stroke="none" />
        </g>
      </g>
    </g>
  </g>
</svg>