<?xml version="1.0" encoding="utf-8"?>
<svg width="60px" height="18.399506px" viewBox="0 0 60 18.399506" version="1.1" xmlns:xlink="http://www.w3.org/1999/xlink" xmlns="http://www.w3.org/2000/svg">
  <path d="M43.6125 0.752045C42.2161 0.247253 40.7417 -0.00726318 39.2568 0.000152588C34.4624 0.000152588 31.0745 2.42267 31.0537 5.88953C31.0144 8.43765 33.4556 9.8739 35.3005 10.7327C37.1963 11.612 37.8301 12.1595 37.8206 12.9395C37.8113 14.1414 36.3057 14.6777 34.9199 14.6777C32.9944 14.6777 31.95 14.4152 30.3394 13.7402L29.7412 13.457L29.0588 17.462C30.2307 17.9402 32.3306 18.3602 34.498 18.3995C39.6057 18.3995 42.9355 15.9977 42.9731 12.2945C43.0125 10.2639 41.7056 8.72266 38.9211 7.45142C37.2412 6.63202 36.1895 6.07327 36.1895 5.23328C36.1895 4.49078 37.0874 3.71078 38.9624 3.71078C40.2068 3.6796 41.4438 3.90891 42.5945 4.38391L43.0537 4.58829L43.7268 0.731415L43.6125 0.752045L43.6125 0.752045ZM24.1499 0.185791L29.0044 0.185791L25.9668 18.0058L21.1125 18.0058L24.1499 0.176422L24.1499 0.185791L24.1499 0.185791ZM11.8069 9.99954L12.3037 12.4802L17.0588 0.332031L22.2056 0.332031L14.5481 18.1145L9.42383 18.1145L5.22363 3.0564C5.19165 2.93134 5.13428 2.81412 5.05518 2.71191C4.97632 2.60974 4.8772 2.52469 4.7644 2.46204C3.25562 1.67737 1.65527 1.08344 0 0.693909L0.0581055 0.32077L7.88989 0.32077C8.94556 0.360168 9.80444 0.693909 10.0969 1.82642L11.8069 10.0089L11.8069 9.99954L11.8069 9.99954ZM56.0757 0.332031L52.3257 0.332031C51.1538 0.332031 50.2837 0.645172 49.7664 1.80765L42.5588 18.1445L47.657 18.1445L48.6843 15.4689L54.9038 15.4783C55.0593 16.1027 55.498 18.1427 55.498 18.1427L60 18.1427L56.0757 0.332031L56.0757 0.332031ZM54.1125 11.8145L50.0725 11.8145L52.0125 6.8364C51.999 6.85757 52.0791 6.65036 52.1936 6.35455C52.3325 5.99548 52.522 5.50589 52.6555 5.13577L52.9875 6.66766L54.1125 11.8145L54.1125 11.8145Z" id="Vector-Copier" fill="#FFFFFF" fill-rule="evenodd" stroke="none" />
</svg>